<svg xmlns="http://www.w3.org/2000/svg" viewBox="0 0 200 200">
  <!-- Plate -->
  <circle cx="100" cy="100" r="85" fill="#f8f9fa" stroke="#2c3e50" stroke-width="3"/>
  <circle cx="100" cy="100" r="75" fill="none" stroke="#34495e" stroke-width="2"/>
  
  <!-- Fork on left (based on Bootstrap Icons) -->
  <g transform="translate(25, 60) scale(4.5)">
    <path d="M4.25 0a.25.25 0 0 1 .25.25v5.122a.128.128 0 0 0 .256.006l.233-5.14A.25.25 0 0 1 5.24 0h.522a.25.25 0 0 1 .25.238l.233 5.14a.128.128 0 0 0 .256-.006V.25A.25.25 0 0 1 6.75 0h.29a.5.5 0 0 1 .498.458l.423 5.07a1.69 1.69 0 0 1-1.059 1.711l-.053.022a.92.92 0 0 0-.58.884L6.47 15a.971.971 0 1 1-1.942 0l.202-6.855a.92.92 0 0 0-.58-.884l-.053-.022a1.69 1.69 0 0 1-1.059-1.712L3.462.458A.5.5 0 0 1 3.96 0z" fill="#7f8c8d"/>
  </g>
  
  <!-- Knife on right (based on Bootstrap Icons) -->
  <g transform="translate(100, 60) scale(4.5)">
    <path d="M13 .5c0-.276-.226-.506-.498-.465-1.703.257-2.94 2.012-3 8.462a.5.5 0 0 0 .498.5c.56.01 1 .13 1 1.003v5.5a.5.5 0 0 0 .5.5h1a.5.5 0 0 0 .5-.5z" fill="#7f8c8d"/>
  </g>
  
  <!-- Calculator in center of plate -->
  <g transform="translate(100, 100)">
    <!-- Calculator body -->
    <rect x="-28" y="-35" width="56" height="70" rx="4" fill="#3498db" stroke="#2980b9" stroke-width="2"/>
    
    <!-- Display -->
    <rect x="-23" y="-28" width="46" height="18" rx="2" fill="#ecf0f1"/>
    
    <!-- Dollar sign on display -->
    <text x="0" y="-13" font-family="Arial, sans-serif" font-size="14" font-weight="bold" fill="#27ae60" text-anchor="middle">$</text>
    
    <!-- Calculator buttons -->
    <circle cx="-14" cy="-2" r="4.5" fill="#ecf0f1"/>
    <circle cx="0" cy="-2" r="4.5" fill="#ecf0f1"/>
    <circle cx="14" cy="-2" r="4.5" fill="#ecf0f1"/>
    
    <circle cx="-14" cy="10" r="4.5" fill="#ecf0f1"/>
    <circle cx="0" cy="10" r="4.5" fill="#ecf0f1"/>
    <circle cx="14" cy="10" r="4.5" fill="#ecf0f1"/>
    
    <circle cx="-14" cy="22" r="4.5" fill="#ecf0f1"/>
    <circle cx="0" cy="22" r="4.5" fill="#ecf0f1"/>
    <circle cx="14" cy="22" r="4.5" fill="#e74c3c"/>
  </g>
</svg>